<svg xmlns="http://www.w3.org/2000/svg" viewBox="0 0 38 39" fill="none" class="site-nav-dropdown-icon">
<path d="M13.8477 2.66302C5.05402 2.66302 0.37305 1.04476 0.37305 1.04476L0.373047 37.4074C7.84082 38.7193 11.8854 38.0318 16.0115 37.3305C18.4927 36.9087 21.0034 36.482 24.3056 36.482C33.0994 36.482 37.7803 38.1002 37.7803 38.1002L37.7803 1.73758C30.3126 0.425674 26.268 1.11317 22.1419 1.81451C19.6607 2.23626 17.15 2.66302 13.8477 2.66302Z" fill="#82D1D1"></path>
<mask id="mask0" mask-type="alpha" maskUnits="userSpaceOnUse" x="0" y="0" width="38" height="39">
<path d="M13.8477 2.66302C5.05402 2.66302 0.37305 1.04476 0.37305 1.04476L0.373047 37.4074C7.84082 38.7193 11.8854 38.0318 16.0115 37.3305C18.4927 36.9087 21.0034 36.482 24.3056 36.482C33.0994 36.482 37.7803 38.1002 37.7803 38.1002L37.7803 1.73758C30.3126 0.425674 26.268 1.11317 22.1419 1.81451C19.6607 2.23626 17.15 2.66302 13.8477 2.66302Z" fill="#82D1D1"></path>
</mask>
<g mask="url(#mask0)">
<rect x="-4.63672" y="-0.00408936" width="20.0793" height="41.4534" transform="rotate(-6.94165 -4.63672 -0.00408936)" fill="#4BB7BF"></rect>
<rect x="2.29199" y="-3.448" width="12.6575" height="51.8273" transform="rotate(-21 2.29199 -3.448)" fill="#4BB7BF"></rect>
</g>
<path d="M19.0791 8.02771L19.0791 31.0681" stroke="white" stroke-width="2.2"></path>
<path d="M13.5234 23.4673C14.2319 28.5948 24.6356 28.5882 24.6356 23.4673C24.6356 21.4819 23.5044 19.3663 19.002 19.3663C14.9148 19.3663 13.8485 17.2266 13.8485 15.5902C13.8485 10.7973 22.8323 10.4417 24.2432 15.1607" stroke="white" stroke-width="2.3"></path>
</svg>